:SAMPLES-PER-SECOND 30
:FULLY-SPECIFIED
:DEGREES
328
root  -2.15463 48.627 -3.68455 6.30569 0.24617 -0.751907
RightUpLeg  -0.9176 -2.54005 2.76315
RightLeg  6.75994 5.3115 0.286836
RightFoot  37.1722 -0.912522 3.09072
RightToes  -41.3958 -0.229729 -0.322871
Spine  0.651709 -3.17878 -5.48812
Spine1  1.82232 -6.52674 -12.1778
HEad  -35.5378 -41.6008 36.5898
LeftShoulder1  0 -2.42657e-020 -4.95415e-022
LeftArm  -25.1209 -5.34087 -52.165
LeftForeArm  81.3166 -78.5752 -61.7116
LeftHand  -0.00725613 -10.093 -0.287981
RightShoulder  0 2.42657e-020 1.07489e-018
RightArm  -123.59 16.3741 -57.7354
RightForeArm  74.5844 6.71541 1.11225
RightHand  -7.94598 31.4881 -27.3145
LeftUpLeg  -5.34432 4.9605 6.02853
LeftLeg  5.39895 -20.0744 -0.590151
LeftFoot  30.7761 2.9933 -10.846
LeftToes  -22.5307 1.33192e-006 1.13262e-007
329
root  -3.23964 48.8799 -3.27062 6.26897 1.57187 -0.972
RightUpLeg  -1.50889 -2.09997 2.82293
RightLeg  6.99117 5.93512 0.34431
RightFoot  38.3266 -1.10328 3.55149
RightToes  -42.485 -0.238633 -0.328725
Spine  0.700557 -2.46733 -5.68196
Spine1  1.87444 -5.09957 -12.8509
HEad  -39.0868 -41.5735 38.5819
LeftShoulder1  0 -2.42657e-020 -4.95415e-022
LeftArm  -25.2785 -4.84922 -48.952
LeftForeArm  69.9991 -75.9302 -45.1482
LeftHand  0.0119253 -11.3491 -0.490263
RightShoulder  0 2.42657e-020 1.07489e-018
RightArm  -124.382 14.2036 -58.7504
RightForeArm  79.872 -0.212766 -0.121346
RightHand  -8.42167 41.9412 -21.3803
LeftUpLeg  -5.51091 6.20559 5.60147
LeftLeg  5.65148 -19.1628 -0.647411
LeftFoot  31.5177 2.98658 -10.5558
LeftToes  -22.4329 1.33192e-006 1.13262e-007
330
root  -4.34355 48.6768 -2.86172 5.8416 3.41527 -1.7258
RightUpLeg  -1.63636 -1.24359 3.24802
RightLeg  7.24938 4.28236 0.26825
RightFoot  39.0852 -0.774863 2.56025
RightToes  -40.923 -0.225899 -0.331454
Spine  1.02451 -2.48345 -5.70291
Spine1  2.38038 -4.9797 -12.8803
HEad  -41.92 -42.358 40.6158
LeftShoulder1  0 -2.42657e-020 -4.95415e-022
LeftArm  -27.7848 -3.45547 -47.7029
LeftForeArm  61.4904 -73.0696 -35.6672
LeftHand  -0.0876192 -11.2818 0.51744
RightShoulder  0 2.42657e-020 1.07489e-018
RightArm  -93.4639 15.0672 -52.5486
RightForeArm  43.4869 -0.138512 -0.028192
RightHand  0.288495 19.3616 2.06174
LeftUpLeg  -5.46905 5.85729 5.88957
LeftLeg  6.16605 -17.1528 -0.733769
LeftFoot  32.9478 2.89481 -9.76745
LeftToes  -20.6747 1.33192e-006 1.13262e-007
331
root  -5.34 48.0439 -2.44721 5.01817 5.03111 -2.32291
RightUpLeg  -1.65917 -2.72344 2.82506
RightLeg  7.83055 4.04327 0.294543
RightFoot  38.4009 -0.703611 2.39776
RightToes  -42.3646 -0.237643 -0.332672
Spine  1.49988 -2.61625 -5.89823
Spine1  3.1056 -5.05841 -12.7945
HEad  -44.5787 -42.1335 43.0195
LeftShoulder1  0 -2.42657e-020 -4.95415e-022
LeftArm  -30.3501 -1.93684 -46.4657
LeftForeArm  53.6274 -69.9349 -29.048
LeftHand  -0.130736 -10.7323 1.02245
RightShoulder  0 2.42657e-020 1.07489e-018
RightArm  -89.11 16.937 -46.0972
RightForeArm  44.0501 -0.140075 -0.0292282
RightHand  0.6974 6.81672 12.0509
LeftUpLeg  -4.87123 5.5033 5.65673
LeftLeg  6.68824 -13.7211 -0.714493
LeftFoot  33.7663 2.39808 -7.89002
LeftToes  -18.0226 1.33192e-006 1.13262e-007
332
root  -6.27642 46.9997 -2.05662 4.00842 6.0226 -2.94571
RightUpLeg  -2.18655 -4.63054 1.91143
RightLeg  9.37784 3.79908 0.380123
RightFoot  37.0805 -0.612283 2.20303
RightToes  -43.2386 -0.244858 -0.332676
Spine  2.04613 -2.39031 -5.81448
Spine1  3.96786 -4.45719 -12.2681
HEad  -48.0999 -42.1751 44.8795
LeftShoulder1  0 -2.42657e-020 -4.95415e-022
LeftArm  -32.9689 -1.87623 -46.0028
LeftForeArm  50.2579 -65.4471 -22.8096
LeftHand  -0.0822236 -11.0923 0.477098
RightShoulder  0 2.42657e-020 1.07489e-018
RightArm  -78.0844 19.1096 -39.3424
RightForeArm  41.5597 -0.137093 -0.027341
RightHand  1.50381 8.08532 21.4264
LeftUpLeg  -4.76926 6.3299 5.05163
LeftLeg  8.86833 -10.1001 -0.912986
LeftFoot  34.5637 1.83388 -5.8898
LeftToes  -16.6911 1.33192e-006 1.13262e-007
333
root  -7.16625 45.4879 -1.73107 3.28586 6.95688 -3.56471
RightUpLeg  -3.27211 -6.34043 0.692661
RightLeg  10.9013 3.55107 0.45088
RightFoot  36.8998 -0.562668 2.06394
RightToes  -42.7938 -0.241177 -0.330354
Spine  2.37676 -2.15616 -5.50147
Spine1  4.54072 -3.9321 -11.62
HEad  -50.0514 -41.4683 45.7581
LeftShoulder1  0 -2.42657e-020 -4.95415e-022
LeftArm  -34.4569 -1.15439 -45.4695
LeftForeArm  46.7965 -61.3897 -18.928
LeftHand  -0.0785352 -11.0706 0.440697
RightShoulder  0 2.42657e-020 1.07489e-018
RightArm  -73.1534 20.6909 -32.219
RightForeArm  42.5991 -0.13271 -0.0245501
RightHand  1.28409 5.41885 27.0461
LeftUpLeg  -5.52486 7.8775 4.29668
LeftLeg  11.3468 -9.98411 -1.33795
LeftFoot  35.1766 1.8807 -5.92817
LeftToes  -15.4688 1.33192e-006 1.13262e-007
334
root  -8.04661 43.5301 -1.40479 2.93434 7.63451 -4.13548
RightUpLeg  -4.56585 -7.7865 -0.667252
RightLeg  11.7258 2.98048 0.422226
RightFoot  35.5395 -0.414319 1.67026
RightToes  -42.6467 -0.239964 -0.32958
Spine  2.39962 -1.94628 -5.2948
Spine1  4.59349 -3.54167 -11.0812
HEad  -50.1362 -41.0395 46.8286
LeftShoulder1  0 -2.42657e-020 -4.95415e-022
LeftArm  -34.5535 0.658965 -43.8307
LeftForeArm  44.6065 -58.6822 -16.8961
LeftHand  -0.0607351 -11.1436 0.252778
RightShoulder  0 2.42657e-020 1.07489e-018
RightArm  -68.6839 21.3119 -25.537
RightForeArm  41.2338 -0.132158 -0.0242032
RightHand  1.33613 6.08469 25.1447
LeftUpLeg  -5.65565 10.9636 3.37356
LeftLeg  11.6931 -12.7465 -1.77996
LeftFoot  33.4243 2.18855 -7.28029
LeftToes  -18.5064 1.33192e-006 1.13262e-007
